<svg xmlns="http://www.w3.org/2000/svg" width="129" height="22" fill="none"><defs><clipPath clipPathUnits="userSpaceOnUse" id="a"><path d="M22256.2 26672.7c-1453.7 50.9-3452 866.2-6720.5-1263.7-3268.4-2129.9-4209.5-4016.4-4430-4608.6-220.6-592.3-907.1-1751.2-1213.35-3545.1-306.25-1793.9-328.08-3784.4 266.15-5247.4 667.1-1642.4 1732.8-2269.7 1960.8-2794.6 228.1-524.9 320.9-728 227.5-1100.3-93.4-372.3-135.9-541.6 24.5-1049.5 160.3-508-102.4-981.7 151.2-1261.1 253.6-279.6 481.9-516.7 871.1-686.3 389.1-169.6 1074.5-305.6 1379.4 49.6 305 355.1 660.8 769.6 1371.8 1022.9 711.2 253.3 846.7 363.2 1794.3 125.4 947.6-237.8 1946.1-272.5 4028.9 715.9 2082.6 988.4 3785.3 2899.7 4887.4 5141.5 1102.2 2241.7 1281.8 4391.2 1232.5 6058.5-49.3 1667.3-420.1 3343.4-1730 5434.9-1309.8 2091.5-158 563.5-741.5 1105.7-180.6 167.8 272.2 2128.9-121.7 2310-261.5 120.1-557.7 277.6-824.7 382.2-630.1 246.9-1578.1-524.6-2413.8-790z"/></clipPath></defs><text style="line-height:1.25" x="25.266" y="17.441" font-weight="400" font-size="18.795" font-family="sans-serif" fill="#000" stroke-width=".47"><tspan x="25.266" y="17.441" style="-inkscape-font-specification:Umpush" font-family="Umpush" fill="green">lemon<tspan fill="#222">home</tspan></tspan></text><g stroke-width="303.492" stroke="#222"><path d="M15.61 4.857c-.965-.553-2.025-1.818-4.994-1.545-2.97.274-4.28 1.213-4.64 1.534-.36.322-1.238.86-2.086 1.964-.847 1.103-1.572 2.44-1.693 3.642-.135 1.348.362 2.153.328 2.589-.033.436-.043.607-.239.825-.196.218-.285.318-.358.718-.073.4-.42.627-.348.907.072.28.142.52.344.774.203.254.618.59.95.46.333-.132.722-.285 1.293-.202.571.082.702.056 1.258.555.555.5 1.218.879 2.978.954 1.761.076 3.594-.609 5.14-1.73 1.545-1.123 2.434-2.512 2.995-3.656.562-1.145.91-2.41.77-4.292-.138-1.881.095-.437-.106-1.012-.062-.178.944-1.342.742-1.605-.133-.174-.277-.386-.42-.552-.338-.392-1.255-.21-1.914-.328h0" fill="#f6ec1b" stroke-width=".2326104"/><path d="M15.61 4.857c-.965-.553-2.025-1.818-4.994-1.545-2.97.274-4.28 1.213-4.64 1.534-.36.322-1.238.86-2.086 1.964-.847 1.103-1.572 2.44-1.693 3.642-.135 1.348.362 2.153.328 2.589-.033.436-.043.607-.239.825-.196.218-.285.318-.358.718-.073.4-.42.627-.348.907.072.28.142.52.344.774.203.254.618.59.95.46.333-.132.722-.285 1.293-.202.571.082.702.056 1.258.555.555.5 1.218.879 2.978.954 1.761.076 3.594-.609 5.14-1.73 1.545-1.123 2.434-2.512 2.995-3.656.562-1.145.91-2.41.77-4.292-.138-1.881.095-.437-.106-1.012-.062-.178.944-1.342.742-1.605-.133-.174-.277-.386-.42-.552-.338-.392-1.255-.21-1.914-.328z" stroke-width=".2326104"/><path d="M17.333 7.427s.17-.47.51-.994c.34-.524.307-.73.038-1.014-.268-.285-.394-.486-.607-.59-.212-.103-1.156 0-1.492-.028a.717.717 0 00-.387.067l.28.186s.945-.091 1.339-.043c.39.047.45.142.678.412.218.26.3.358.118.805-.183.447-.615.977-.615.977l.138.222h0" fill="#171717" stroke-width=".2319057"/><path d="M17.333 7.427s.17-.47.51-.994c.34-.524.307-.73.038-1.014-.268-.285-.394-.486-.607-.59-.212-.103-1.156 0-1.492-.028a.717.717 0 00-.387.067l.28.186s.945-.091 1.339-.043c.39.047.45.142.678.412.218.26.3.358.118.805-.183.447-.615.977-.615.977z" stroke-width=".2319057"/><path d="M17.71 5.22s.796-.595 1.187-1.03c.39-.435.733-.914.733-.914l.496.227s-.33.27-.526.488c-.196.218-1.28 1.036-1.431 1.205-.152.17-.329.317-.329.317l-.13-.292h0" fill="#171717" stroke-width=".23140259999999999"/><path d="M17.71 5.22s.796-.595 1.187-1.03c.39-.435.733-.914.733-.914l.496.227s-.33.27-.526.488c-.196.218-1.28 1.036-1.431 1.205-.152.17-.329.317-.329.317z" stroke-width=".23140259999999999"/><g clip-path="url(#a)" transform="matrix(.00068 .00036 .00036 -.00068 -8.912 14.966)"><path d="M25934.145 24477.635s1061.959-4712.196-39.817-7525.949c-1101.777-2813.787-3261.375-5753.196-5241.022-6952.98-1979.646-1199.82-5518.913-3119.413-6658.714-2159.616-1139.8 959.797-2220.6 1760.308-2519.503 2166.51-298.903 406.203-2370.922-4985.9 884.11-6365.602 3255.101-1379.805 14172.89 2219.497 15552.524 8098.297 1379.805 5878.921 901.484 8218.472 321.81 9598.106-940.094 2237.68-2299.388 3141.234-2299.388 3141.234" fill="#fad617" stroke-width="303.49178496"/></g><path d="M2.47 13.422s-.08.25-.31.545c-.23.296-.089.458-.226.73-.136.272-.586.693-.318 1.113.269.42.698 1.02 1.167.976.47-.044.95-.388 1.664-.105.714.283.452.104 1.176.575s2.408 1.23 4.773.594c2.365-.638 3.989-2.047 4.626-2.837.638-.79 1.798-2.401 2.11-3.986.31-1.584.4-3.192.174-3.898-.06.062-.213-.564-.246-.504-.046.083.106.685.132.948.05.513.058 1.804-.121 2.683-.18.878-.943 2.846-1.665 3.81-.723.965-1.873 2.047-2.81 2.532-.938.485-2.018 1.128-3.108 1.225-1.09.096-2.167.098-2.96-.256-.794-.354-1.798-1.113-2.103-1.172-.306-.059-.712.114-1.126.136-.415.023-.662.338-1.12-.11-.46-.447-.537-.84-.472-1.032.065-.192.362-.642.422-.948.059-.305.564-.748.538-.879-.026-.13-.197-.14-.197-.14h0" fill="#171717" stroke-width=".2322579"/><path d="M2.47 13.422s-.08.25-.31.545c-.23.296-.089.458-.226.73-.136.272-.586.693-.318 1.113.269.42.698 1.02 1.167.976.47-.044.95-.388 1.664-.105.714.283.452.104 1.176.575s2.408 1.23 4.773.594c2.365-.638 3.989-2.047 4.626-2.837.638-.79 1.798-2.401 2.11-3.986.31-1.584.4-3.192.174-3.898-.06.062-.213-.564-.246-.504-.046.083.106.685.132.948.05.513.058 1.804-.121 2.683-.18.878-.943 2.846-1.665 3.81-.723.965-1.873 2.047-2.81 2.532-.938.485-2.018 1.128-3.108 1.225-1.09.096-2.167.098-2.96-.256-.794-.354-1.798-1.113-2.103-1.172-.306-.059-.712.114-1.126.136-.415.023-.662.338-1.12-.11-.46-.447-.537-.84-.472-1.032.065-.192.362-.642.422-.948.059-.305.564-.748.538-.879-.026-.13-.197-.14-.197-.14z" stroke-width=".2322579"/><path d="M15.783 5.02c-.702-.577-2.348-2.243-5.696-1.89-2.328.247-3.325.964-4.325 1.68-1.226.876-1.787 1.57-2.288 2.236-.556.739-1.412 2.31-1.406 3.461.005 1.152.358 2.086.36 2.482.003.397.205.65.112 1.033-.092.383-.068.476-.068.476s.237-.504.19-1.011c-.045-.508-.503-1.994-.358-3.154.146-1.16.89-2.787 1.91-3.843s2.233-2.188 4.392-2.796c2.158-.607 3.785-.66 5.371.306 1.406.857 1.591 1.1 1.591 1.1l.215-.08h0" fill="#171717" stroke-width=".23174579999999997"/><path d="M15.783 5.02c-.702-.577-2.348-2.243-5.696-1.89-2.328.247-3.325.964-4.325 1.68-1.226.876-1.787 1.57-2.288 2.236-.556.739-1.412 2.31-1.406 3.461.005 1.152.358 2.086.36 2.482.003.397.205.65.112 1.033-.092.383-.068.476-.068.476s.237-.504.19-1.011c-.045-.508-.503-1.994-.358-3.154.146-1.16.89-2.787 1.91-3.843s2.233-2.188 4.392-2.796c2.158-.607 3.785-.66 5.371.306 1.406.857 1.591 1.1 1.591 1.1z" stroke-width=".23174579999999997"/></g></svg>
